<svg xmlns="http://www.w3.org/2000/svg" width="225" height="225" viewBox="0 0 225 225">
<g>
<path d="M 0.00 0.00 L 225.00 0.00 L 225.00 225.00 L 0.00 225.00 ZM 145.03 163.99 C163.49,168.97 180.16,163.01 179.93,151.50 C179.88,148.84 179.78,148.74 179.02,150.61 C176.70,156.36 168.12,159.56 157.62,158.59 C126.78,155.76 79.63,121.95 65.47,92.51 C59.36,79.80 59.96,70.97 67.32,65.57 C69.70,63.83 71.59,63.50 79.32,63.52 C89.28,63.55 97.33,65.54 109.41,70.96 C120.15,75.78 116.91,73.29 105.34,67.83 C70.96,51.61 46.28,56.13 48.29,78.28 C49.45,91.10 62.61,111.31 80.09,127.13 C99.61,144.80 122.92,158.03 145.03,163.99 ZM 120.00 90.00 L 120.00 142.00 L 133.00 142.00 L 133.00 125.00 L 150.00 125.00 L 150.00 113.00 L 133.00 113.00 L 133.00 102.00 L 152.00 102.00 L 152.00 90.00 ZM 149.50 169.36 C156.78,170.46 168.58,169.38 173.04,167.21 C177.28,165.14 181.08,160.86 182.57,156.50 C182.95,155.40 181.96,156.43 180.38,158.80 C177.10,163.69 170.12,167.62 162.98,168.59 C149.72,170.40 121.34,160.40 101.00,146.74 C50.70,112.98 29.40,67.19 59.22,56.89 C62.78,55.66 63.69,55.06 62.00,55.04 C58.80,55.01 49.97,59.14 47.95,61.61 C41.20,69.85 41.21,79.60 47.98,93.85 C50.43,98.99 55.39,106.97 59.01,111.58 C62.63,116.20 66.43,122.29 67.45,125.12 C70.66,134.06 77.44,139.89 86.55,141.56 C88.72,141.95 91.62,143.05 93.00,144.00 C110.32,155.94 135.49,167.24 149.50,169.36 ZM 76.40 104.72 C78.10,107.04 79.64,108.95 79.82,108.97 C79.99,108.99 81.62,107.43 83.44,105.50 C86.46,102.29 87.21,102.00 92.47,102.00 C97.54,102.00 98.52,102.34 101.00,105.00 C103.52,107.70 104.41,108.00 109.90,108.00 C116.54,108.00 116.87,107.62 114.39,102.70 C107.51,89.08 90.55,85.19 76.58,94.05 C71.44,97.31 71.42,97.95 76.40,104.72 ZM 107.49 133.46 C109.13,134.21 110.83,134.61 111.25,134.34 C113.40,133.02 116.19,125.12 116.71,118.91 L 117.29 112.00 L 92.00 112.00 L 92.00 116.80 C92.00,122.59 93.21,124.00 98.20,124.00 C102.12,124.00 102.85,124.75 100.84,126.76 C99.49,128.11 102.58,131.23 107.49,133.46 Z" fill="rgb(1,0,1)"/>
<path d="M 76.40 104.72 C71.42,97.95 71.44,97.31 76.58,94.05 C90.55,85.19 107.51,89.08 114.39,102.70 C116.87,107.62 116.54,108.00 109.90,108.00 C104.41,108.00 103.52,107.70 101.00,105.00 C98.52,102.34 97.54,102.00 92.47,102.00 C87.21,102.00 86.46,102.29 83.44,105.50 C81.62,107.43 79.99,108.99 79.82,108.97 C79.64,108.95 78.10,107.04 76.40,104.72 ZM 107.49 133.46 C102.58,131.23 99.49,128.11 100.84,126.76 C102.85,124.75 102.12,124.00 98.20,124.00 C93.21,124.00 92.00,122.59 92.00,116.80 L 92.00 112.00 L 117.29 112.00 L 116.71 118.91 C116.19,125.12 113.40,133.02 111.25,134.34 C110.83,134.61 109.13,134.21 107.49,133.46 ZM 98.88 145.30 C95.88,143.33 93.07,141.58 92.00,141.02 L 89.50 139.73 L 91.96 142.41 C93.33,143.90 95.50,145.61 98.23,147.44 C96.42,146.31 94.67,145.16 93.00,144.00 C91.62,143.05 88.72,141.95 86.55,141.56 C77.44,139.89 70.66,134.06 67.45,125.12 C66.43,122.29 62.63,116.20 59.01,111.58 C56.26,108.08 52.74,102.64 50.14,97.98 C52.61,101.91 53.21,100.16 50.58,94.11 C58.48,110.34 75.37,129.10 98.88,145.30 ZM 43.02 75.31 C43.01,78.93 43.38,80.89 44.00,80.50 C45.28,79.71 45.28,72.97 44.00,71.00 C43.73,70.58 43.52,70.52 43.37,70.86 C43.97,68.03 45.15,65.42 46.91,62.96 C46.32,63.95 45.78,65.10 45.52,66.00 C44.95,67.99 45.69,67.52 49.15,63.67 C49.42,63.37 49.69,63.08 49.95,62.80 C44.11,69.48 44.26,79.79 49.44,91.64 C47.71,88.10 46.34,86.26 45.81,86.79 C45.49,87.11 45.63,88.16 46.17,89.75 C43.44,83.02 42.42,77.35 43.10,72.36 C43.05,73.10 43.02,74.07 43.02,75.31 ZM 60.09 112.83 C65.78,119.86 68.41,121.14 64.01,114.75 C59.15,107.68 56.36,104.62 55.71,105.66 C55.37,106.20 57.35,109.43 60.09,112.83 ZM 149.50 169.36 C140.98,168.07 128.32,163.39 115.82,157.23 C127.86,163.02 141.35,168.13 149.50,169.36 ZM 130.88 162.08 C122.01,158.69 112.86,154.24 104.86,149.24 C113.00,154.28 122.10,158.71 130.88,162.08 ZM 62.00 55.04 C63.69,55.06 62.78,55.66 59.22,56.89 C56.89,57.69 54.88,58.71 53.17,59.92 C54.90,58.64 56.73,57.73 59.00,56.95 C62.61,55.71 63.64,55.06 62.00,55.04 ZM 54.73 57.30 C57.53,56.01 60.44,55.03 62.00,55.04 C60.45,55.03 57.54,56.01 54.73,57.30 Z" fill="rgb(11,181,233)"/>
<path d="M 120.00 90.00 L 152.00 90.00 L 152.00 102.00 L 133.00 102.00 L 133.00 113.00 L 150.00 113.00 L 150.00 125.00 L 133.00 125.00 L 133.00 142.00 L 120.00 142.00 ZM 149.50 169.36 C140.98,168.07 128.32,163.39 115.82,157.23 C109.76,154.24 103.73,150.90 98.23,147.44 C95.50,145.61 93.33,143.90 91.96,142.41 L 89.50 139.73 L 92.00 141.02 C93.07,141.58 95.88,143.33 98.88,145.30 C99.58,145.78 100.29,146.27 101.00,146.74 C102.26,147.59 103.55,148.42 104.86,149.24 C104.88,149.24 104.89,149.25 104.90,149.26 C112.89,154.26 122.02,158.70 130.87,162.08 L 130.88 162.08 C143.59,166.96 155.62,169.60 162.98,168.59 C170.12,167.62 177.10,163.69 180.38,158.80 C181.96,156.43 182.95,155.40 182.57,156.50 C181.08,160.86 177.28,165.14 173.04,167.21 C168.58,169.38 156.78,170.46 149.50,169.36 ZM 53.17 59.92 C51.94,60.79 50.87,61.75 49.95,62.80 C49.69,63.08 49.42,63.37 49.15,63.67 C45.69,67.52 44.95,67.99 45.52,66.00 C45.78,65.10 46.32,63.95 46.91,62.96 C47.24,62.51 47.58,62.05 47.95,61.61 C48.98,60.35 51.80,58.65 54.73,57.30 C57.54,56.01 60.45,55.03 62.00,55.04 C63.64,55.06 62.61,55.71 59.00,56.95 C56.73,57.73 54.90,58.64 53.17,59.92 ZM 60.09 112.83 C57.35,109.43 55.37,106.20 55.71,105.66 C56.36,104.62 59.15,107.68 64.01,114.75 C68.41,121.14 65.78,119.86 60.09,112.83 ZM 49.44 91.64 C49.80,92.46 50.18,93.28 50.58,94.11 C53.21,100.16 52.61,101.91 50.14,97.98 C49.31,96.49 48.57,95.09 47.98,93.85 C47.31,92.44 46.71,91.08 46.17,89.75 C45.63,88.16 45.49,87.11 45.81,86.79 C46.34,86.26 47.71,88.10 49.44,91.64 ZM 43.02 75.31 C43.02,74.07 43.05,73.10 43.10,72.36 C43.17,71.85 43.26,71.35 43.37,70.86 C43.52,70.52 43.73,70.58 44.00,71.00 C45.28,72.97 45.28,79.71 44.00,80.50 C43.38,80.89 43.01,78.93 43.02,75.31 Z" fill="rgb(83,180,222)"/>
<path d="M 145.03 163.99 C122.92,158.03 99.61,144.80 80.09,127.13 C62.61,111.31 49.45,91.10 48.29,78.28 C46.28,56.13 70.96,51.61 105.34,67.83 C116.91,73.29 120.15,75.78 109.41,70.96 C97.33,65.54 89.28,63.55 79.32,63.52 C71.59,63.50 69.70,63.83 67.32,65.57 C59.96,70.97 59.36,79.80 65.47,92.51 C79.63,121.95 126.78,155.76 157.62,158.59 C168.12,159.56 176.70,156.36 179.02,150.61 C179.78,148.74 179.88,148.84 179.93,151.50 C180.16,163.01 163.49,168.97 145.03,163.99 Z" fill="rgb(221,31,39)"/>
</g>
</svg>